 <svg version="1.0" xmlns="http://www.w3.org/2000/svg"  width="300.000000pt" height="300.000000pt" viewBox="0 0 300.000000 300.000000"  preserveAspectRatio="xMidYMid meet">  <g transform="translate(0.000000,300.000000) scale(0.100000,-0.100000)" fill="#ffffffff" stroke="none"> <path d="M0 1500 l0 -1500 1500 0 1500 0 0 1500 0 1500 -1500 0 -1500 0 0 -1500z m1675 939 c167 -20 338 -93 464 -200 39 -32 75 -59 81 -59 5 0 10 -7 10 -16 0 -9 9 -18 20 -21 11 -3 20 -14 20 -24 0 -12 10 -23 26 -29 19 -8 24 -15 19 -30 -5 -14 -2 -20 9 -20 9 0 16 -6 16 -13 0 -8 13 -41 29 -74 35 -72 69 -172 78 -228 3 -22 10 -45 15 -51 4 -6 6 -19 2 -28 -3 -9 -1 -23 5 -30 7 -8 8 -17 3 -20 -5 -3 -7 -19 -4 -36 3 -21 0 -30 -10 -30 -11 0 -14 13 -13 55 1 31 -2 55 -8 55 -5 0 -7 13 -4 29 3 15 -1 56 -8 89 -16 69 -74 212 -85 212 -4 0 -11 8 -14 18 -12 32 -33 63 -42 60 -5 -2 -11 8 -12 21 -2 13 -12 26 -23 28 -11 3 -19 14 -19 25 0 11 -8 22 -18 25 -10 2 -22 14 -27 26 -27 59 -244 187 -385 227 -107 31 -279 37 -394 16 -87 -17 -218 -62 -224 -78 -2 -4 -12 -8 -21 -8 -10 0 -26 -9 -36 -20 -10 -11 -21 -17 -26 -14 -4 2 -15 -6 -24 -20 -10 -14 -22 -22 -31 -19 -8 3 -21 -7 -31 -26 -10 -17 -24 -29 -31 -26 -7 3 -17 -7 -22 -21 -6 -14 -14 -23 -19 -20 -21 14 -191 -243 -191 -289 0 -8 -7 -15 -15 -15 -8 0 -15 7 -15 15 0 8 4 15 8 15 5 0 16 19 27 43 35 81 150 242 197 275 10 7 18 19 18 27 0 7 10 15 22 17 13 2 24 11 26 23 6 30 19 40 36 26 12 -10 17 -9 28 8 7 12 20 21 30 21 9 0 23 6 30 13 29 27 207 83 303 96 99 12 129 12 230 0z m38 -200 c-46 -13 -65 -48 -71 -129 l-5 -70 -53 0 -54 0 0 58 c0 76 -24 123 -70 139 -30 10 -12 12 125 12 116 -1 151 -3 128 -10z m153 -294 c0 -30 -3 -55 -8 -55 -4 0 -8 6 -8 14 0 37 -81 73 -178 78 l-53 3 1 -370 c1 -396 3 -415 51 -415 11 0 18 -3 16 -7 -3 -5 -54 -6 -114 -4 -59 3 -98 6 -85 8 12 3 30 16 40 31 15 23 17 66 20 395 l4 369 -59 -6 c-111 -14 -183 -45 -183 -82 0 -8 -5 -14 -11 -14 -6 0 -8 7 -5 16 3 9 6 33 6 55 l0 39 283 0 282 0 1 -55z m579 -574 c7 -12 -12 -24 -25 -16 -11 7 -4 25 10 25 5 0 11 -4 15 -9z m-1721 -81 c3 -22 15 -56 26 -75 11 -20 20 -42 20 -50 0 -8 5 -15 10 -15 6 0 10 -9 10 -19 0 -11 3 -21 8 -23 4 -1 16 -21 27 -42 27 -54 166 -199 235 -246 84 -57 173 -99 258 -121 117 -31 138 -33 267 -33 170 1 293 36 443 126 75 45 172 125 172 143 0 7 9 15 20 18 13 3 18 10 14 21 -4 11 2 19 20 26 14 5 26 16 26 25 0 8 5 15 10 15 14 0 13 -12 -6 -48 -8 -18 -22 -32 -29 -32 -8 0 -16 -8 -20 -17 -12 -35 -169 -153 -270 -202 -154 -76 -244 -94 -440 -89 -89 2 -167 8 -175 13 -8 5 -19 10 -25 11 -5 1 -47 16 -92 33 -107 42 -219 115 -301 199 -64 66 -152 182 -152 202 0 6 -4 10 -10 10 -5 0 -10 9 -10 19 0 10 -7 22 -16 25 -8 3 -13 10 -9 16 3 5 1 17 -4 27 -13 24 -25 55 -26 68 0 6 -4 16 -8 23 -5 6 -5 17 -2 22 12 20 23 9 29 -30z m1706 20 c0 -5 -4 -10 -10 -10 -5 0 -10 5 -10 10 0 6 5 10 10 10 6 0 10 -4 10 -10z m-10 -60 c0 -5 -5 -12 -11 -16 -14 -8 -33 11 -25 25 7 11 36 4 36 -9z m-794 -142 c-26 -133 -133 -237 -243 -238 -58 0 -55 16 4 23 39 4 54 12 79 41 34 39 64 120 64 172 l0 34 51 0 52 0 -7 -32z"/> <path d="M1544 2198 c4 -13 9 -44 13 -70 5 -42 9 -48 29 -48 18 0 24 5 24 23 0 13 6 45 14 70 l14 47 -50 0 c-47 0 -50 -1 -44 -22z"/> <path d="M1570 1310 c0 -25 -3 -55 -6 -67 -5 -18 -2 -23 14 -23 17 0 19 5 14 48 -8 72 -21 97 -22 42z"/> <path d="M1549 1050 c-18 -70 -9 -78 20 -17 24 49 27 77 8 77 -7 0 -19 -26 -28 -60z"/> </g> </svg> 