 <svg version="1.0" xmlns="http://www.w3.org/2000/svg"  width="300.000000pt" height="300.000000pt" viewBox="0 0 300.000000 300.000000"  preserveAspectRatio="xMidYMid meet">  <g transform="translate(0.000000,300.000000) scale(0.100000,-0.100000)" fill="#ffffffff" stroke="none"> <path d="M1386 2740 c-103 -12 -234 -45 -323 -82 -40 -16 -79 -31 -86 -32 -7 -1 -26 -12 -42 -24 -17 -14 -35 -20 -47 -16 -14 4 -21 0 -25 -15 -6 -22 -8 -23 -58 -25 -24 -1 -31 -6 -33 -26 -5 -34 -19 -48 -50 -52 -18 -2 -28 -10 -32 -28 -4 -15 -15 -26 -30 -30 -14 -3 -27 -15 -29 -25 -2 -11 -23 -41 -47 -67 -53 -57 -150 -203 -184 -278 -14 -30 -31 -60 -39 -66 -17 -13 -7 -48 11 -42 7 3 15 18 19 34 21 103 221 394 270 394 12 0 19 7 19 19 0 22 22 43 41 39 7 -2 18 8 25 22 17 32 42 50 60 43 8 -3 17 5 24 21 6 15 20 28 37 32 15 4 38 18 50 31 12 12 29 23 38 23 9 0 28 9 43 20 42 30 230 89 339 105 300 45 608 -23 857 -189 97 -65 196 -152 196 -172 0 -8 11 -19 25 -24 15 -6 25 -17 25 -30 0 -13 10 -24 25 -30 24 -9 29 -19 26 -48 -1 -6 10 -17 24 -24 14 -6 25 -19 25 -29 0 -10 9 -23 20 -29 11 -6 17 -16 14 -22 -4 -6 0 -16 8 -22 50 -37 167 -381 139 -409 -16 -16 -13 -47 4 -47 17 0 21 -35 5 -45 -8 -5 -7 -11 0 -20 7 -8 10 -31 8 -52 -2 -29 1 -38 12 -38 11 0 14 10 12 41 -2 24 1 45 8 49 8 5 7 11 -2 22 -7 9 -13 32 -14 52 -5 87 -68 300 -120 402 -13 26 -21 49 -18 51 2 3 -5 13 -16 23 -11 10 -20 29 -20 42 0 13 -6 23 -14 23 -10 0 -14 9 -13 27 2 20 -3 28 -18 31 -30 6 -45 22 -45 48 0 16 -7 24 -22 26 -14 2 -24 12 -28 28 -3 14 -14 26 -25 28 -11 2 -40 23 -65 47 -148 142 -379 258 -598 299 -103 19 -269 27 -366 16z"/> <path d="M1335 2470 c-3 -5 3 -10 15 -10 65 0 107 -58 116 -162 10 -114 5 -108 83 -108 l68 0 5 83 c3 47 13 97 22 114 20 40 62 73 92 73 13 0 24 5 24 10 0 6 -76 10 -209 10 -129 0 -212 -4 -216 -10z"/> <path d="M1150 2053 l0 -78 20 32 c10 18 31 40 45 49 40 26 153 54 218 54 l58 0 -3 -507 c-3 -463 -5 -511 -21 -540 -11 -21 -29 -36 -50 -42 -23 -7 9 -9 118 -9 83 0 139 3 126 7 -13 3 -34 19 -45 34 -21 28 -21 39 -24 544 l-3 516 83 -6 c127 -8 228 -55 251 -117 3 -8 6 20 6 63 l1 77 -390 0 -390 0 0 -77z"/> <path d="M2695 1271 c-8 -15 3 -31 21 -31 9 0 14 7 12 17 -4 20 -24 28 -33 14z"/> <path d="M314 1189 c-3 -6 -1 -16 5 -22 6 -6 11 -20 11 -31 0 -12 7 -29 15 -39 7 -11 11 -26 8 -34 -4 -9 1 -19 11 -25 11 -6 14 -17 10 -33 -4 -17 0 -26 15 -35 12 -6 21 -20 21 -30 0 -11 4 -20 9 -20 5 0 13 -10 17 -22 4 -13 10 -25 14 -28 3 -3 25 -33 48 -67 133 -197 339 -362 558 -447 121 -47 126 -48 149 -53 10 -2 22 -7 25 -12 3 -5 19 -9 35 -9 17 -1 77 -6 135 -12 297 -31 618 58 851 236 127 96 183 145 190 162 3 9 19 24 35 33 16 9 28 22 26 29 -2 7 6 23 18 35 20 21 18 35 -6 35 -6 0 -15 -11 -18 -24 -4 -15 -14 -26 -29 -28 -15 -2 -23 -11 -25 -30 -2 -16 -11 -30 -23 -33 -10 -4 -19 -12 -19 -20 0 -20 -113 -119 -206 -181 -128 -85 -272 -145 -436 -180 -101 -22 -386 -27 -409 -7 -8 7 -25 10 -37 6 -14 -3 -30 1 -41 11 -13 12 -27 15 -45 10 -16 -4 -26 -2 -26 4 0 6 -12 10 -27 10 -67 -1 -259 93 -393 192 -112 83 -278 271 -307 347 -4 10 -13 24 -20 31 -7 7 -13 22 -13 33 0 10 -4 19 -10 19 -5 0 -10 14 -10 30 0 21 -5 30 -16 30 -11 0 -15 6 -11 20 3 10 -1 24 -9 31 -16 13 -39 85 -35 112 2 19 -24 24 -35 6z"/> <path d="M2686 1181 c-4 -5 -2 -12 3 -15 5 -4 12 -2 15 3 4 5 2 12 -3 15 -5 4 -12 2 -15 -3z"/> <path d="M2653 1104 c-6 -17 15 -37 29 -28 13 9 9 32 -7 38 -9 3 -18 -1 -22 -10z"/> <path d="M1476 928 c-2 -13 -9 -51 -15 -86 -29 -154 -112 -252 -215 -252 -20 0 -36 -4 -36 -10 0 -16 101 -12 153 6 112 38 214 176 242 327 l7 37 -66 0 c-60 0 -66 -2 -70 -22z"/> </g> </svg> 